# xmcd
#
# Track frame offsets:
#	150
#	15149
#	27742
#	43309
#	54774
#	72211
#	86768
#	106424
#	121002
#	137207
#	151980
#
# Disc length: 2260 seconds
#
# Revision: 0
# Processed by: cddbd v1.5.2PL0 Copyright (c) Steve Scherf et al.
# Submitted via: dBpowerAMP V4.0
#
DISCID=8908d20b
DTITLE=Paul Bailey - Love Me Forever
DYEAR=2007
DGENRE=
TTITLE0=Love Me Forever
TTITLE1=Sweetheart
TTITLE2=My Little Girl
TTITLE3=No 1
TTITLE4=Don't Walk Away (With Just A Smile)
TTITLE5=Back To The Basics
TTITLE6=The Biggest Fool Of All
TTITLE7=Let It Be
TTITLE8=We're Gonna Party
TTITLE9=Living Wighout You
TTITLE10=The Last To Know
EXTD=
EXTT0=
EXTT1=
EXTT2=
EXTT3=
EXTT4=
EXTT5=
EXTT6=
EXTT7=
EXTT8=
EXTT9=
EXTT10=
PLAYORDER=
